<mxfile host="Electron" modified="2024-01-30T12:34:29.401Z" agent="Mozilla/5.0 (Windows NT 10.0; Win64; x64) AppleWebKit/537.36 (KHTML, like Gecko) draw.io/23.0.2 Chrome/120.0.6099.109 Electron/28.1.0 Safari/537.36" etag="4KgraZjKTqvm0sx9rvUQ" version="23.0.2" type="device" pages="2">
  <diagram name="var-scope" id="nJ_fkZGC_OQyFwyIq7Wl">
    <mxGraphModel dx="1038" dy="616" grid="1" gridSize="10" guides="1" tooltips="1" connect="1" arrows="1" fold="1" page="1" pageScale="1" pageWidth="850" pageHeight="1100" math="0" shadow="0">
      <root>
        <mxCell id="0" />
        <mxCell id="1" parent="0" />
        <mxCell id="1bL-SOGwegf_4KBzyjrI-1" value="&lt;span style=&quot;background-color: initial; font-size: 22px;&quot;&gt;&lt;font style=&quot;font-size: 22px;&quot;&gt;window (global)&lt;br style=&quot;font-size: 22px;&quot;&gt;&amp;nbsp; let|const|var a = 1;&lt;br style=&quot;font-size: 22px;&quot;&gt;&lt;br style=&quot;font-size: 22px;&quot;&gt;&lt;/font&gt;&lt;/span&gt;&lt;div style=&quot;border-color: var(--border-color); font-size: 22px;&quot;&gt;&lt;span style=&quot;border-color: var(--border-color); background-color: initial; font-size: 22px;&quot;&gt;&amp;nbsp; function foo() {&lt;/span&gt;&lt;/div&gt;&lt;span style=&quot;border-color: var(--border-color); font-size: 22px;&quot;&gt;&lt;font style=&quot;border-color: var(--border-color); font-size: 22px;&quot;&gt;&lt;div style=&quot;border-color: var(--border-color); font-size: 22px;&quot;&gt;&lt;span style=&quot;border-color: var(--border-color); background-color: initial; font-size: 22px;&quot;&gt;&lt;font style=&quot;border-color: var(--border-color); font-size: 22px;&quot;&gt;&amp;nbsp; &amp;nbsp; let x = 2;&amp;nbsp;&lt;/font&gt;&lt;/span&gt;&lt;/div&gt;&lt;div style=&quot;border-color: var(--border-color); font-size: 22px;&quot;&gt;&lt;span style=&quot;border-color: var(--border-color); background-color: initial; font-size: 22px;&quot;&gt;&lt;font style=&quot;border-color: var(--border-color); font-size: 22px;&quot;&gt;&amp;nbsp;&amp;nbsp;&lt;/font&gt;&lt;/span&gt;&lt;/div&gt;&lt;div style=&quot;border-color: var(--border-color); font-size: 22px;&quot;&gt;&lt;span style=&quot;border-color: var(--border-color); background-color: initial; font-size: 22px;&quot;&gt;&lt;font style=&quot;border-color: var(--border-color); font-size: 22px;&quot;&gt;&amp;nbsp; &amp;nbsp; if (condition) {&lt;/font&gt;&lt;/span&gt;&lt;/div&gt;&lt;div style=&quot;border-color: var(--border-color); font-size: 22px;&quot;&gt;&lt;span style=&quot;border-color: var(--border-color); background-color: initial; font-size: 22px;&quot;&gt;&lt;font style=&quot;border-color: var(--border-color); font-size: 22px;&quot;&gt;&amp;nbsp; &amp;nbsp; &amp;nbsp; let y = 3;&lt;/font&gt;&lt;/span&gt;&lt;/div&gt;&lt;div style=&quot;border-color: var(--border-color); font-size: 22px;&quot;&gt;&lt;span style=&quot;border-color: var(--border-color); background-color: initial; font-size: 22px;&quot;&gt;&lt;font style=&quot;border-color: var(--border-color); font-size: 22px;&quot;&gt;&amp;nbsp; &amp;nbsp; } else {&lt;/font&gt;&lt;/span&gt;&lt;/div&gt;&lt;div style=&quot;border-color: var(--border-color); font-size: 22px;&quot;&gt;&lt;span style=&quot;border-color: var(--border-color); background-color: initial; font-size: 22px;&quot;&gt;&lt;font style=&quot;border-color: var(--border-color); font-size: 22px;&quot;&gt;&amp;nbsp; &amp;nbsp; &amp;nbsp; let y2 = 4&lt;/font&gt;&lt;/span&gt;&lt;/div&gt;&lt;div style=&quot;border-color: var(--border-color); font-size: 22px;&quot;&gt;&lt;span style=&quot;border-color: var(--border-color); background-color: initial; font-size: 22px;&quot;&gt;&lt;font style=&quot;border-color: var(--border-color); font-size: 22px;&quot;&gt;&amp;nbsp; &amp;nbsp; }&lt;/font&gt;&lt;/span&gt;&lt;/div&gt;&lt;div style=&quot;border-color: var(--border-color); font-size: 22px;&quot;&gt;&lt;span style=&quot;border-color: var(--border-color); background-color: initial; font-size: 22px;&quot;&gt;&lt;font style=&quot;border-color: var(--border-color); font-size: 22px;&quot;&gt;&lt;br style=&quot;border-color: var(--border-color); font-size: 22px;&quot;&gt;&lt;/font&gt;&lt;/span&gt;&lt;/div&gt;&lt;div style=&quot;border-color: var(--border-color); font-size: 22px;&quot;&gt;&lt;span style=&quot;border-color: var(--border-color); background-color: initial; font-size: 22px;&quot;&gt;&lt;font style=&quot;border-color: var(--border-color); font-size: 22px;&quot;&gt;&amp;nbsp; &amp;nbsp; for (let i = 0; i &amp;lt; 10; i++) {&lt;/font&gt;&lt;/span&gt;&lt;/div&gt;&lt;div style=&quot;border-color: var(--border-color); font-size: 22px;&quot;&gt;&lt;span style=&quot;border-color: var(--border-color); background-color: initial; font-size: 22px;&quot;&gt;&lt;font style=&quot;border-color: var(--border-color); font-size: 22px;&quot;&gt;&amp;nbsp; &amp;nbsp; &amp;nbsp; let z = 5;&lt;/font&gt;&lt;/span&gt;&lt;/div&gt;&lt;div style=&quot;border-color: var(--border-color); font-size: 22px;&quot;&gt;&lt;span style=&quot;border-color: var(--border-color); background-color: initial; font-size: 22px;&quot;&gt;&lt;font style=&quot;border-color: var(--border-color); font-size: 22px;&quot;&gt;&amp;nbsp; &amp;nbsp; }&lt;/font&gt;&lt;/span&gt;&lt;/div&gt;&lt;div style=&quot;border-color: var(--border-color); font-size: 22px;&quot;&gt;&lt;span style=&quot;border-color: var(--border-color); background-color: initial; font-size: 22px;&quot;&gt;&lt;font style=&quot;border-color: var(--border-color); font-size: 22px;&quot;&gt;&amp;nbsp; &amp;nbsp; function baz() {&lt;/font&gt;&lt;/span&gt;&lt;/div&gt;&lt;div style=&quot;border-color: var(--border-color); font-size: 22px;&quot;&gt;&lt;span style=&quot;border-color: var(--border-color); background-color: initial; font-size: 22px;&quot;&gt;&lt;font style=&quot;border-color: var(--border-color); font-size: 22px;&quot;&gt;&amp;nbsp; &amp;nbsp; &amp;nbsp; let j = 6&lt;/font&gt;&lt;/span&gt;&lt;/div&gt;&lt;div style=&quot;border-color: var(--border-color); font-size: 22px;&quot;&gt;&lt;span style=&quot;border-color: var(--border-color); background-color: initial; font-size: 22px;&quot;&gt;&lt;font style=&quot;border-color: var(--border-color); font-size: 22px;&quot;&gt;&amp;nbsp; &amp;nbsp; }&lt;/font&gt;&lt;/span&gt;&lt;/div&gt;&lt;div style=&quot;border-color: var(--border-color); font-size: 22px;&quot;&gt;&lt;span style=&quot;border-color: var(--border-color); background-color: initial; font-size: 22px;&quot;&gt;&lt;font style=&quot;border-color: var(--border-color); font-size: 22px;&quot;&gt;&amp;nbsp; }&lt;/font&gt;&lt;/span&gt;&lt;/div&gt;&lt;/font&gt;&lt;/span&gt;" style="rounded=0;whiteSpace=wrap;html=1;verticalAlign=top;fontSize=22;align=left;glass=0;strokeColor=none;fontStyle=0" parent="1" vertex="1">
          <mxGeometry x="270" y="50" width="310" height="520" as="geometry" />
        </mxCell>
        <mxCell id="1bL-SOGwegf_4KBzyjrI-3" value="a, foo" style="shape=curlyBracket;whiteSpace=wrap;html=1;rounded=1;labelPosition=left;verticalLabelPosition=middle;align=right;verticalAlign=middle;fontStyle=1;fontSize=22;" parent="1" vertex="1">
          <mxGeometry x="116" y="90" width="40" height="480" as="geometry" />
        </mxCell>
        <mxCell id="1bL-SOGwegf_4KBzyjrI-4" value="x, baz&amp;nbsp;" style="shape=curlyBracket;whiteSpace=wrap;html=1;rounded=1;labelPosition=left;verticalLabelPosition=middle;align=right;verticalAlign=middle;size=0.5;fontStyle=1;fontSize=22;" parent="1" vertex="1">
          <mxGeometry x="193" y="150" width="40" height="420" as="geometry" />
        </mxCell>
        <mxCell id="1bL-SOGwegf_4KBzyjrI-7" value="y" style="shape=curlyBracket;whiteSpace=wrap;html=1;rounded=1;labelPosition=left;verticalLabelPosition=middle;align=right;verticalAlign=middle;size=0.5;fontStyle=1;fontSize=22;" parent="1" vertex="1">
          <mxGeometry x="243" y="229" width="40" height="40" as="geometry" />
        </mxCell>
        <mxCell id="1bL-SOGwegf_4KBzyjrI-8" value="y2" style="shape=curlyBracket;whiteSpace=wrap;html=1;rounded=1;labelPosition=left;verticalLabelPosition=middle;align=right;verticalAlign=middle;size=0.5;fontStyle=1;fontSize=22;" parent="1" vertex="1">
          <mxGeometry x="243" y="290" width="40" height="40" as="geometry" />
        </mxCell>
        <mxCell id="1bL-SOGwegf_4KBzyjrI-9" value="z" style="shape=curlyBracket;whiteSpace=wrap;html=1;rounded=1;labelPosition=left;verticalLabelPosition=middle;align=right;verticalAlign=middle;size=0.5;fontStyle=1;fontSize=22;" parent="1" vertex="1">
          <mxGeometry x="243" y="390" width="40" height="40" as="geometry" />
        </mxCell>
        <mxCell id="1bL-SOGwegf_4KBzyjrI-10" value="j" style="shape=curlyBracket;whiteSpace=wrap;html=1;rounded=1;labelPosition=left;verticalLabelPosition=middle;align=right;verticalAlign=middle;size=0.5;fontStyle=1;fontSize=22;" parent="1" vertex="1">
          <mxGeometry x="243" y="460" width="40" height="40" as="geometry" />
        </mxCell>
        <mxCell id="1bL-SOGwegf_4KBzyjrI-12" value="&lt;font style=&quot;font-size: 22px;&quot;&gt;let|const&amp;nbsp;&lt;br&gt;block scope&lt;br&gt;&lt;/font&gt;" style="text;html=1;strokeColor=none;fillColor=none;align=center;verticalAlign=middle;whiteSpace=wrap;rounded=0;fontStyle=1;fontSize=22;" parent="1" vertex="1">
          <mxGeometry x="70" y="40" width="150" height="30" as="geometry" />
        </mxCell>
        <mxCell id="1bL-SOGwegf_4KBzyjrI-13" value="&lt;font style=&quot;font-size: 22px;&quot;&gt;var&lt;br&gt;hoisted&lt;br&gt;&lt;/font&gt;" style="text;html=1;strokeColor=none;fillColor=none;align=center;verticalAlign=middle;whiteSpace=wrap;rounded=0;fontStyle=1;fontSize=22;" parent="1" vertex="1">
          <mxGeometry x="620" y="40" width="60" height="30" as="geometry" />
        </mxCell>
        <mxCell id="1bL-SOGwegf_4KBzyjrI-14" value="x, y, y2, z,&lt;br style=&quot;font-size: 22px;&quot;&gt;baz" style="shape=curlyBracket;whiteSpace=wrap;html=1;rounded=1;flipH=1;labelPosition=right;verticalLabelPosition=middle;align=left;verticalAlign=middle;fontStyle=1;fontSize=22;" parent="1" vertex="1">
          <mxGeometry x="559" y="168.25" width="50" height="390" as="geometry" />
        </mxCell>
        <mxCell id="1bL-SOGwegf_4KBzyjrI-15" value="j" style="shape=curlyBracket;whiteSpace=wrap;html=1;rounded=1;flipH=1;labelPosition=right;verticalLabelPosition=middle;align=left;verticalAlign=middle;fontStyle=1;fontSize=22;" parent="1" vertex="1">
          <mxGeometry x="510" y="460" width="50" height="61.75" as="geometry" />
        </mxCell>
        <mxCell id="1bL-SOGwegf_4KBzyjrI-16" value="a, foo" style="shape=curlyBracket;whiteSpace=wrap;html=1;rounded=1;flipH=1;labelPosition=right;verticalLabelPosition=middle;align=left;verticalAlign=middle;fontStyle=1;fontSize=22;" parent="1" vertex="1">
          <mxGeometry x="658" y="90" width="50" height="470" as="geometry" />
        </mxCell>
      </root>
    </mxGraphModel>
  </diagram>
  <diagram id="ASnrCObzfex9xe1B-Avl" name="prototypical-inheritance">
    <mxGraphModel dx="1888" dy="616" grid="1" gridSize="10" guides="1" tooltips="1" connect="1" arrows="1" fold="1" page="1" pageScale="1" pageWidth="850" pageHeight="1100" math="0" shadow="0">
      <root>
        <mxCell id="0" />
        <mxCell id="1" parent="0" />
        <mxCell id="KzjRH57UnE_6WmJCgLiU-8" style="edgeStyle=orthogonalEdgeStyle;rounded=0;orthogonalLoop=1;jettySize=auto;html=1;entryX=0.5;entryY=1;entryDx=0;entryDy=0;fontSize=22;" edge="1" parent="1" source="KzjRH57UnE_6WmJCgLiU-1" target="KzjRH57UnE_6WmJCgLiU-4">
          <mxGeometry relative="1" as="geometry" />
        </mxCell>
        <mxCell id="KzjRH57UnE_6WmJCgLiU-1" value="&lt;b style=&quot;font-size: 22px;&quot;&gt;Employee&lt;br style=&quot;font-size: 22px;&quot;&gt;incomeTax () = totalIncome * 0.10&lt;br style=&quot;font-size: 22px;&quot;&gt;&lt;/b&gt;__prototype__" style="rounded=0;whiteSpace=wrap;html=1;fontSize=22;" vertex="1" parent="1">
          <mxGeometry x="205" y="309" width="420" height="111" as="geometry" />
        </mxCell>
        <mxCell id="KzjRH57UnE_6WmJCgLiU-9" style="edgeStyle=orthogonalEdgeStyle;rounded=0;orthogonalLoop=1;jettySize=auto;html=1;fontSize=22;" edge="1" parent="1" source="KzjRH57UnE_6WmJCgLiU-4" target="KzjRH57UnE_6WmJCgLiU-5">
          <mxGeometry relative="1" as="geometry" />
        </mxCell>
        <mxCell id="KzjRH57UnE_6WmJCgLiU-4" value="&lt;b style=&quot;font-size: 22px;&quot;&gt;Person&lt;br style=&quot;font-size: 22px;&quot;&gt;&lt;/b&gt;getName () =&amp;gt; this.name&lt;br style=&quot;font-size: 22px;&quot;&gt;__prototype__" style="rounded=0;whiteSpace=wrap;html=1;fontSize=22;" vertex="1" parent="1">
          <mxGeometry x="255" y="170" width="320" height="110" as="geometry" />
        </mxCell>
        <mxCell id="KzjRH57UnE_6WmJCgLiU-5" value="&lt;span style=&quot;font-size: 22px;&quot;&gt;&lt;b style=&quot;font-size: 22px;&quot;&gt;Object&lt;/b&gt;&lt;br style=&quot;font-size: 22px;&quot;&gt;toString()&lt;br style=&quot;font-size: 22px;&quot;&gt;&lt;/span&gt;__prototype__" style="rounded=0;whiteSpace=wrap;html=1;fontSize=22;" vertex="1" parent="1">
          <mxGeometry x="320" y="30" width="190" height="110" as="geometry" />
        </mxCell>
        <mxCell id="KzjRH57UnE_6WmJCgLiU-11" style="edgeStyle=orthogonalEdgeStyle;rounded=0;orthogonalLoop=1;jettySize=auto;html=1;fontSize=22;" edge="1" parent="1" source="KzjRH57UnE_6WmJCgLiU-10" target="KzjRH57UnE_6WmJCgLiU-1">
          <mxGeometry relative="1" as="geometry" />
        </mxCell>
        <mxCell id="KzjRH57UnE_6WmJCgLiU-10" value="&lt;b style=&quot;font-size: 22px;&quot;&gt;Salary&lt;br style=&quot;font-size: 22px;&quot;&gt;weeklyPay () =&amp;gt; this.yearlySalary / 52&lt;br style=&quot;font-size: 22px;&quot;&gt;&lt;/b&gt;__prototype__" style="rounded=0;whiteSpace=wrap;html=1;fontSize=22;" vertex="1" parent="1">
          <mxGeometry x="-30" y="480" width="430" height="110" as="geometry" />
        </mxCell>
        <mxCell id="KzjRH57UnE_6WmJCgLiU-13" style="edgeStyle=orthogonalEdgeStyle;rounded=0;orthogonalLoop=1;jettySize=auto;html=1;entryX=0.5;entryY=1;entryDx=0;entryDy=0;fontSize=22;" edge="1" parent="1" source="KzjRH57UnE_6WmJCgLiU-12" target="KzjRH57UnE_6WmJCgLiU-1">
          <mxGeometry relative="1" as="geometry" />
        </mxCell>
        <mxCell id="KzjRH57UnE_6WmJCgLiU-12" value="&lt;b style=&quot;font-size: 22px;&quot;&gt;Hourly&lt;br style=&quot;font-size: 22px;&quot;&gt;weekly Pay () =&amp;gt; this.hours * this.hourlyRate&lt;br style=&quot;font-size: 22px;&quot;&gt;&lt;/b&gt;__prototype__" style="rounded=0;whiteSpace=wrap;html=1;fontSize=22;" vertex="1" parent="1">
          <mxGeometry x="410" y="480" width="480" height="110" as="geometry" />
        </mxCell>
      </root>
    </mxGraphModel>
  </diagram>
</mxfile>
